# xmcd
#
# Track frame offsets: 
#        150
#        5430
#        13194
#        20630
#        32100
#        44124
#        45672
#        51522
#        63424
#        75390
#        82395
#        89250
#        91717
#        101136
#        113699
#        131531
#        143876
#        144965
#        150697
#        159030
#        169441
#        180577
#        196994
#        210741
#        212051
#        222702
#        226316
#        240902
#        263606
#        273320
#        284597
#        300983
#
# Disc length: 4191 seconds
#
# Revision: 0
# Processed by: cddbd v1.5.2PL0 Copyright (c) Steve Scherf et al.
# Submitted via: ExactAudioCopy v0.99pb3
#
DISCID=c4105d20
DTITLE=Young Fresh Fellows - Gag Fah
DYEAR=1990
DGENRE=Ambient
TTITLE0=This is Gonna Be a Great Show
TTITLE1=Gus Theme
TTITLE2=Boy Girl
TTITLE3=Ted, Woody, and Junior
TTITLE4=I Lose Control
TTITLE5=Time Flies
TTITLE6=Calendar Girl
TTITLE7=We are the Salesmen
TTITLE8=Watching Scotty Grow
TTITLE9=Evil Ways
TTITLE10=Earthbound
TTITLE11=Leather Taxidermy
TTITLE12=Sittin' Round Doin' Nothin'
TTITLE13=She's So Far Out She's In
TTITLE14=The Bittersweet Beluga
TTITLE15=Lookin' Good (intro)
TTITLE16=Lookin' Good
TTITLE17=Scott, Nobleman of Edenbrook Forest
TTITLE18=Highway 94
TTITLE19=Lovely is the Life
TTITLE20=The Family Gun
TTITLE21=The Interstellar Rebellion
TTITLE22=Rock Around the Clock
TTITLE23=Juiced part one
TTITLE24=Movin' On
TTITLE25=Juiced part two
TTITLE26=Trek to Stupidity
TTITLE27=Little Brown Jug Twist
TTITLE28=Cruster's Theme
TTITLE29=Filet of Soul
TTITLE30=It's Gorilla Time
TTITLE31=Mo' Gorilla
EXTD=
EXTT0=
EXTT1=
EXTT2=
EXTT3=
EXTT4=
EXTT5=
EXTT6=
EXTT7=
EXTT8=
EXTT9=
EXTT10=
EXTT11=
EXTT12=
EXTT13=
EXTT14=
EXTT15=
EXTT16=
EXTT17=
EXTT18=
EXTT19=
EXTT20=
EXTT21=
EXTT22=
EXTT23=
EXTT24=
EXTT25=
EXTT26=
EXTT27=
EXTT28=
EXTT29=
EXTT30=
EXTT31=
PLAYORDER=
